<?xml version="1.0" encoding="UTF-8" standalone="no"?>
<!DOCTYPE svg PUBLIC "-//W3C//DTD SVG 1.1//EN" "http://www.w3.org/Graphics/SVG/1.1/DTD/svg11.dtd">
<svg width="100%" height="100%" viewBox="0 0 926 688" version="1.1" xmlns="http://www.w3.org/2000/svg" xmlns:xlink="http://www.w3.org/1999/xlink" xml:space="preserve" xmlns:serif="http://www.serif.com/" style="fill-rule:evenodd;clip-rule:evenodd;stroke-linejoin:round;stroke-miterlimit:2;">
    <rect x="68.941" y="48.33" width="799.809" height="511.726" style="fill:rgb(63,61,86);"/>
    <rect x="485.903" y="140.725" width="360.104" height="418.857" style="fill:rgb(242,242,242);"/>
    <g transform="matrix(1,0,0,1,-137.375,-106.339)">
        <path d="M174.04,637.759C184.986,658.057 208.215,666.771 208.215,666.771C208.215,666.771 213.699,642.574 202.754,622.276C191.809,601.978 168.579,593.264 168.579,593.264C168.579,593.264 163.095,617.46 174.04,637.759Z" style="fill:rgb(63,61,86);fill-rule:nonzero;"/>
    </g>
    <g transform="matrix(1,0,0,1,-137.375,-106.339)">
        <path d="M181.563,631.081C201.324,642.969 208.934,666.583 208.934,666.583C208.934,666.583 184.507,670.922 164.746,659.034C144.985,647.145 137.375,623.531 137.375,623.531C137.375,623.531 161.803,619.192 181.563,631.081Z" style="fill:rgb(108,99,255);fill-rule:nonzero;"/>
    </g>
    <rect x="607.702" y="179.698" width="218.403" height="8.807" style="fill:white;"/>
    <rect x="607.702" y="199.073" width="218.403" height="8.807" style="fill:white;"/>
    <rect x="607.702" y="218.447" width="73.975" height="8.807" style="fill:white;"/>
    <rect x="159.218" y="444.09" width="218.403" height="8.807" style="fill:white;"/>
    <rect x="159.218" y="463.465" width="218.403" height="8.807" style="fill:white;"/>
    <rect x="159.218" y="482.839" width="73.975" height="8.807" style="fill:white;"/>
    <rect x="556.53" y="287.729" width="218.403" height="8.807" style="fill:white;"/>
    <rect x="556.53" y="307.104" width="218.403" height="8.807" style="fill:white;"/>
    <rect x="556.53" y="326.057" width="218.403" height="8.807" style="fill:white;"/>
    <rect x="556.53" y="345.01" width="218.403" height="8.807" style="fill:white;"/>
    <rect x="556.53" y="363.962" width="218.403" height="8.807" style="fill:white;"/>
    <rect x="556.53" y="382.915" width="218.403" height="8.807" style="fill:white;"/>
    <rect x="556.53" y="401.868" width="218.403" height="8.807" style="fill:white;"/>
    <rect x="556.53" y="420.821" width="218.403" height="8.807" style="fill:white;"/>
    <rect x="556.53" y="439.774" width="218.403" height="8.807" style="fill:white;"/>
    <rect x="556.53" y="458.726" width="218.403" height="8.807" style="fill:white;"/>
    <rect x="556.53" y="477.679" width="218.403" height="8.807" style="fill:white;"/>
    <g transform="matrix(1,0,0,1,-137.375,-106.339)">
        <path d="M485.377,410.399C485.404,434.415 474.53,457.19 455.839,472.27C452.424,475.045 448.782,477.527 444.951,479.69C442.639,481.003 440.26,482.196 437.825,483.263C429.752,486.826 421.138,489.007 412.342,489.716C410.182,489.896 407.999,489.985 405.794,489.982C401.432,489.986 397.077,489.628 392.774,488.911C391.257,488.674 389.76,488.38 388.282,488.039C385.698,487.464 383.145,486.756 380.634,485.916C370.311,482.473 360.805,476.944 352.707,469.674C350.621,467.825 348.644,465.857 346.785,463.779C333.557,449.154 326.226,430.121 326.226,410.401C326.226,366.747 362.148,330.825 405.802,330.825C449.455,330.825 485.376,366.746 485.377,410.399Z" style="fill:rgb(108,99,255);fill-rule:nonzero;"/>
    </g>
    <g transform="matrix(1,0,0,1,-137.375,-106.339)">
        <path d="M722.136,321.621C722.249,347.093 707.146,356.053 688.468,356.136C688.035,356.138 687.603,356.135 687.173,356.127C686.307,356.112 685.451,356.077 684.603,356.02C667.74,354.901 654.601,345.61 654.495,321.922C654.387,297.407 685.581,266.331 687.92,264.033L687.925,264.031C688.014,263.943 688.059,263.899 688.059,263.899C688.059,263.899 722.023,296.152 722.136,321.621Z" style="fill:rgb(108,99,255);fill-rule:nonzero;"/>
    </g>
    <g transform="matrix(1,0,0,1,-137.375,-106.339)">
        <path d="M687.22,352.245L699.513,334.907L687.197,354.142L687.173,356.127C686.307,356.112 685.451,356.076 684.603,356.02L685.822,330.532L685.811,330.335L685.834,330.297L685.95,327.889L673.433,308.716L685.979,326.085L686.012,326.595L686.934,307.338L676.203,287.516L687.049,303.954L687.921,264.033L687.924,263.9L687.925,264.031L687.89,295.51L698.427,282.984L687.856,298.221L687.653,315.462L697.474,298.874L687.624,317.997L687.511,327.583L701.769,304.491L687.47,330.927L687.22,352.245Z" style="fill:rgb(63,61,86);fill-rule:nonzero;"/>
    </g>
    <g transform="matrix(1,0,0,1,-137.375,-106.339)">
        <path d="M1005.65,378.786C932.871,378.786 872.981,438.675 872.981,511.455L872.981,511.455C872.981,532.77 855.442,550.309 834.128,550.309L769.688,550.309C706.265,550.309 654.076,602.498 654.076,665.921L654.076,665.921L1005.65,665.921L1005.65,378.786L1005.65,378.786Z" style="fill:rgb(63,61,86);fill-rule:nonzero;"/>
    </g>
    <rect x="459.843" y="48.33" width="17.058" height="511.726" style="fill:rgb(47,46,65);"/>
    <g transform="matrix(1,0,0,1,-137.375,-106.339)">
        <path d="M440.383,147.087L440.383,133.82C440.374,118.751 427.971,106.355 412.902,106.355C397.832,106.355 385.429,118.751 385.42,133.82L385.42,147.087L333.3,147.087L333.3,176.464L492.504,176.464L492.504,147.087L440.383,147.087ZM412.902,113.92C421.739,113.92 429.012,121.192 429.012,130.03C429.012,138.867 421.739,146.14 412.902,146.14C404.064,146.14 396.792,138.867 396.792,130.03C396.792,130.03 396.792,130.03 396.792,130.03C396.792,121.192 404.064,113.92 412.902,113.92C412.902,113.92 412.902,113.92 412.902,113.92Z" style="fill:rgb(108,99,255);fill-rule:nonzero;"/>
    </g>
    <g transform="matrix(1,0,0,1,-137.375,-106.339)">
        <path d="M419.926,405.147C419.926,405.147 412.01,427.676 416.881,431.143C421.752,434.609 400.441,462.914 400.441,462.914L374.868,455.982L388.872,432.298C388.872,432.298 390.699,408.613 390.699,405.147C390.699,401.681 419.926,405.147 419.926,405.147Z" style="fill:rgb(255,184,184);fill-rule:nonzero;"/>
    </g>
    <g transform="matrix(1,0,0,1,-137.375,-106.339)">
        <path d="M419.926,405.147C419.926,405.147 412.01,427.676 416.881,431.143C421.752,434.609 400.441,462.914 400.441,462.914L374.868,455.982L388.872,432.298C388.872,432.298 390.699,408.613 390.699,405.147C390.699,401.681 419.926,405.147 419.926,405.147Z" style="fill-opacity:0.1;fill-rule:nonzero;"/>
    </g>
    <circle cx="266.376" cy="294.765" r="20.796" style="fill:rgb(255,184,184);"/>
    <g transform="matrix(1,0,0,1,-137.375,-106.339)">
        <path d="M388.282,488.039C385.698,487.464 383.145,486.756 380.635,485.916L384.615,458.624L385.847,450.209L392.158,452.578C393.011,452.891 393.977,453.261 395.086,453.668C396.798,454.338 398.714,454.269 400.374,453.479C406.477,450.683 410.106,439.804 410.106,439.804C410.106,439.804 410.353,442.856 410.675,448.02C411.253,457.089 412.087,472.687 412.343,489.716C410.182,489.896 407.999,489.985 405.794,489.982C401.432,489.986 397.077,489.628 392.774,488.911C391.258,488.674 389.76,488.38 388.282,488.039Z" style="fill:rgb(208,205,225);fill-rule:nonzero;"/>
    </g>
    <g transform="matrix(1,0,0,1,-137.375,-106.339)">
        <path d="M393.93,436.345L392.158,452.578L391.295,460.434L388.282,488.039C385.698,487.464 383.145,486.756 380.635,485.916C370.311,482.473 360.805,476.944 352.708,469.674L348.87,455.98C348.89,455.163 348.973,454.349 349.116,453.545C349.115,453.534 349.118,453.524 349.125,453.516C349.239,452.8 349.397,452.091 349.599,451.394C349.604,451.385 349.608,451.375 349.609,451.365C350.289,448.759 351.627,446.37 353.494,444.429C358.119,439.804 388.727,425.362 388.727,425.362L389.305,426.575L393.93,436.345Z" style="fill:rgb(208,205,225);fill-rule:nonzero;"/>
    </g>
    <g transform="matrix(1,0,0,1,-137.375,-106.339)">
        <path d="M403.308,371.713C407.918,371.548 412.852,371.467 416.739,373.951C418.527,375.198 420.096,376.733 421.381,378.495C425.166,383.281 428.438,389.303 427.031,395.24L425.398,394.603C425.398,396.188 425.75,397.754 426.43,399.186C426.2,398.517 425.429,399.598 425.636,400.275L427.435,406.177C426.905,406.014 426.353,405.931 425.799,405.931C423.157,405.931 420.862,407.815 420.348,410.406C420.142,403.55 419.431,395.689 413.87,391.674C411.065,389.65 407.515,389.032 404.1,388.483C400.95,387.977 397.647,387.494 394.629,388.531C391.612,389.568 389.042,392.655 389.726,395.771C388.249,395.439 386.727,396.189 386.091,397.563C385.508,398.92 385.253,400.396 385.346,401.87C383.863,402.919 382.175,400.837 381.571,399.124C380.152,395.104 378.891,390.825 379.655,386.631C380.42,382.437 383.837,378.429 388.1,378.414C387.583,377.846 387.307,377.098 387.33,376.33L390.844,376.033C389.952,375.907 389.132,375.475 388.524,374.81C389.934,376.362 401.027,371.795 403.308,371.713Z" style="fill:rgb(47,46,65);fill-rule:nonzero;"/>
    </g>
    <g transform="matrix(1,0,0,1,-137.375,-106.339)">
        <path d="M451.698,451.365C451.158,455.696 448.069,467.93 444.951,479.69C442.639,481.004 440.26,482.196 437.825,483.263C429.752,486.826 421.138,489.007 412.343,489.716C410.182,489.896 407.999,489.985 405.794,489.982C401.432,489.986 397.077,489.628 392.774,488.911C394.385,482.694 396.555,472.45 398.583,462.415C399.199,459.382 399.805,456.359 400.374,453.479C402.601,442.126 404.325,432.877 404.325,432.877C404.325,432.877 411.243,426.092 415.347,424.519C415.902,424.271 416.513,424.17 417.119,424.225C420.502,424.784 425.126,432.877 425.126,432.877C425.126,432.877 445.88,439.795 450.731,447.651C451.47,448.741 451.811,450.053 451.698,451.365Z" style="fill:rgb(208,205,225);fill-rule:nonzero;"/>
    </g>
    <g transform="matrix(1,0,0,1,-137.375,-106.339)">
        <path d="M363.89,451.365L362.677,477.293C359.156,475.022 355.823,472.474 352.707,469.674C350.621,467.825 348.644,465.857 346.785,463.779C347.78,459.411 348.614,455.734 349.116,453.545C349.115,453.535 349.118,453.524 349.125,453.516C349.391,452.303 349.561,451.555 349.599,451.394C349.604,451.385 349.608,451.375 349.609,451.365L363.89,451.365Z" style="fill:rgb(208,205,225);fill-rule:nonzero;"/>
    </g>
    <g transform="matrix(1,0,0,1,-137.375,-106.339)">
        <path d="M455.839,472.27C452.424,475.045 448.782,477.527 444.951,479.69C442.639,481.003 440.26,482.196 437.825,483.263L435.522,469.844L437.834,444.429L450.731,447.651L451.698,447.897L455.839,472.27Z" style="fill:rgb(208,205,225);fill-rule:nonzero;"/>
    </g>
    <g transform="matrix(1,0,0,1,-137.375,-106.339)">
        <path d="M1002.63,516.84C1002.63,516.84 993.625,560.84 1008.63,556.84C1023.63,552.84 1017.63,514.84 1017.63,514.84L1002.63,516.84Z" style="fill:rgb(160,97,106);fill-rule:nonzero;"/>
    </g>
    <g transform="matrix(1,0,0,1,-137.375,-106.339)">
        <path d="M1044.63,334.84L1034.63,334.84C1034.63,334.84 1023.63,342.84 1024.63,351.84C1025.63,360.84 1006.63,438.84 1006.63,448.84C1006.63,458.84 1002.63,461.84 1002.63,467.84C1002.63,473.84 1004.63,477.84 1002.63,480.84C1000.63,483.84 996.625,501.84 997.625,508.84C998.206,513.489 998.206,518.192 997.625,522.84L1022.63,522.84C1022.63,522.84 1040.63,461.84 1044.63,458.84C1048.63,455.84 1050.63,450.84 1050.63,447.84C1050.63,444.84 1048.63,444.84 1053.63,440.84C1058.63,436.84 1055.63,418.84 1055.63,418.84L1062.63,400.84L1044.63,334.84Z" style="fill:rgb(208,205,225);fill-rule:nonzero;"/>
    </g>
    <g transform="matrix(1,0,0,1,-137.375,-106.339)">
        <path d="M1044.63,334.84L1034.63,334.84C1034.63,334.84 1023.63,342.84 1024.63,351.84C1025.63,360.84 1006.63,438.84 1006.63,448.84C1006.63,458.84 1002.63,461.84 1002.63,467.84C1002.63,473.84 1004.63,477.84 1002.63,480.84C1000.63,483.84 996.625,501.84 997.625,508.84C998.206,513.489 998.206,518.192 997.625,522.84L1022.63,522.84C1022.63,522.84 1040.63,461.84 1044.63,458.84C1048.63,455.84 1050.63,450.84 1050.63,447.84C1050.63,444.84 1048.63,444.84 1053.63,440.84C1058.63,436.84 1055.63,418.84 1055.63,418.84L1062.63,400.84L1044.63,334.84Z" style="fill-opacity:0.1;fill-rule:nonzero;"/>
    </g>
    <g transform="matrix(1,0,0,1,-137.375,-106.339)">
        <path d="M904.625,492.34C904.625,492.34 895.625,536.34 910.625,532.34C925.625,528.34 919.625,490.34 919.625,490.34L904.625,492.34Z" style="fill:rgb(160,97,106);fill-rule:nonzero;"/>
    </g>
    <path d="M770.25,591.001L764.25,616.001L786.25,630.001L792.25,600.001L770.25,591.001Z" style="fill:rgb(160,97,106);fill-rule:nonzero;"/>
    <path d="M874.25,622.001L863.25,637.001L876.25,652.001L894.25,652.001L894.25,622.001L874.25,622.001Z" style="fill:rgb(160,97,106);fill-rule:nonzero;"/>
    <g transform="matrix(1,0,0,1,-137.375,-106.339)">
        <path d="M1034.63,745.34L1028.63,745.34C1025.65,744.736 1022.6,744.736 1019.63,745.34C1013.63,746.34 1005.48,736.715 1005.48,736.715L997.625,743.34C997.625,743.34 981.625,747.34 989.625,766.34L1007.63,777.34C1007.63,777.34 1016.63,796.34 1034.63,793.34C1052.63,790.34 1039.63,770.34 1039.63,770.34L1034.63,745.34Z" style="fill:rgb(47,46,65);fill-rule:nonzero;"/>
    </g>
    <g transform="matrix(1,0,0,1,-137.375,-106.339)">
        <path d="M907.625,710.34L906.104,703.678L892.625,707.34C892.625,707.34 864.625,689.34 864.625,713.34C864.625,737.34 886.625,745.34 886.625,745.34C886.625,745.34 894.625,744.34 894.625,751.34C894.625,758.34 915.625,769.34 923.625,765.34C931.625,761.34 931.625,751.34 931.625,751.34L929.625,723.34L920.625,725.34C920.625,725.34 903.625,724.34 906.625,720.34C909.625,716.34 907.625,710.34 907.625,710.34Z" style="fill:rgb(47,46,65);fill-rule:nonzero;"/>
    </g>
    <g transform="matrix(1,0,0,1,-137.375,-106.339)">
        <path d="M936.625,480.34C936.625,480.34 924.625,496.34 924.625,505.34C924.625,514.34 920.625,594.34 920.625,594.34C920.625,594.34 898.625,696.34 904.625,702.34C910.625,708.34 928.625,717.34 931.625,714.34C934.625,711.34 955.625,602.34 955.625,602.34L980.625,535.34L1003.63,631.34C1003.63,631.34 1002.63,714.34 1006.63,715.34C1010.63,716.34 1012.63,717.34 1010.63,721.34C1008.63,725.34 1005.63,733.34 1005.63,733.34C1005.63,733.34 1030.63,739.34 1035.63,735.34C1040.63,731.34 1041.63,634.34 1035.63,600.34C1029.63,566.34 1036.63,488.34 1036.63,488.34L936.625,480.34Z" style="fill:rgb(47,46,65);fill-rule:nonzero;"/>
    </g>
    <circle cx="835.75" cy="150.501" r="30" style="fill:rgb(160,97,106);"/>
    <g transform="matrix(1,0,0,1,-137.375,-106.339)">
        <path d="M964.125,275.84C964.125,275.84 968.125,296.84 964.125,302.84C960.125,308.84 1018.13,304.84 1018.13,304.84C1018.13,304.84 990.125,272.84 993.125,266.84C996.125,260.84 964.125,275.84 964.125,275.84Z" style="fill:rgb(160,97,106);fill-rule:nonzero;"/>
    </g>
    <g transform="matrix(1,0,0,1,-137.375,-106.339)">
        <path d="M938.625,310.34C938.625,310.34 958.625,284.34 983.625,289.34C990.374,290.69 996.541,292.04 1001.95,293.291C1021,297.701 1036.84,311.277 1043.34,329.715C1045.03,334.496 1045.88,339.09 1045.13,342.84C1042.13,357.84 1043.63,476.34 1043.63,476.34C1043.63,476.34 1035.63,479.34 1036.63,483.34C1037.63,487.34 1044.63,492.34 1037.63,492.34C1030.63,492.34 924.625,488.34 926.625,485.34C928.625,482.34 938.625,310.34 938.625,310.34Z" style="fill:rgb(208,205,225);fill-rule:nonzero;"/>
    </g>
    <g transform="matrix(1,0,0,1,-137.375,-106.339)">
        <path d="M948.625,310.34L938.625,310.34C938.625,310.34 927.625,318.34 928.625,327.34C929.625,336.34 910.625,414.34 910.625,424.34C910.625,434.34 906.625,437.34 906.625,443.34C906.625,449.34 908.625,453.34 906.625,456.34C904.625,459.34 900.625,477.34 901.625,484.34C902.206,488.989 902.206,493.692 901.625,498.34L926.625,498.34C926.625,498.34 944.625,437.34 948.625,434.34C952.625,431.34 954.625,426.34 954.625,423.34C954.625,420.34 952.625,420.34 957.625,416.34C962.625,412.34 959.625,394.34 959.625,394.34L966.625,376.34L948.625,310.34Z" style="fill:rgb(208,205,225);fill-rule:nonzero;"/>
    </g>
    <path d="M796.671,377.682L826.75,311.501L811.711,381.885L796.671,377.682Z" style="fill-opacity:0.1;fill-rule:nonzero;"/>
    <g transform="matrix(1,0,0,1,-137.375,-106.339)">
        <path d="M962.659,211.473L962.675,208.997C964.742,208.734 966.838,208.808 968.881,209.215C968.904,207.721 968.594,206.24 967.974,204.88C970.033,205.151 972.036,205.747 973.908,206.646L974.597,202.048L992.509,208.325C998.938,210.579 1005.73,213.087 1009.91,218.473C1014.56,224.477 1014.89,232.878 1013.11,240.26C1011.32,247.643 1007.69,254.425 1004.98,261.52C1003.99,264.55 1002.72,267.478 1001.18,270.266C995.761,278.993 983.539,282.107 973.962,278.4C970.428,277.031 967.091,274.75 965.3,271.41C964.383,269.338 963.603,267.208 962.965,265.034C961.3,260.625 958.87,251.402 954.83,248.975C953.052,247.907 950.341,252.492 948.806,251.097C944.861,247.514 944.838,241.252 946.399,236.156C947.871,231.05 949.71,226.057 951.902,221.216C952.843,219.262 962.661,211.176 962.659,211.473Z" style="fill:rgb(47,46,65);fill-rule:nonzero;"/>
    </g>
</svg>
