<?xml version="1.0" encoding="UTF-8" standalone="no"?>
<!DOCTYPE svg PUBLIC "-//W3C//DTD SVG 1.1//EN" "http://www.w3.org/Graphics/SVG/1.1/DTD/svg11.dtd">
<svg width="100%" height="100%" viewBox="0 0 960 686" version="1.1" xmlns="http://www.w3.org/2000/svg" xmlns:xlink="http://www.w3.org/1999/xlink" xml:space="preserve" xmlns:serif="http://www.serif.com/" style="fill-rule:evenodd;clip-rule:evenodd;stroke-linejoin:round;stroke-miterlimit:2;">
    <g transform="matrix(1,0,0,1,-120.359,-107.022)">
        <path d="M867.063,418.092C865.269,413.48 867.831,411.173 868.856,407.073C869.882,402.973 866.55,390.16 866.55,390.16C866.55,390.16 855.787,345.827 852.456,337.114C851.046,333.427 847.984,330.891 844.921,329.188C844.713,328.057 844.413,327.327 843.999,327.12C841.031,325.635 833.636,322.41 828.709,321.519C827.787,319.935 826.694,318.457 825.45,317.113C826.315,315.452 826.716,313.588 826.611,311.718C826.297,306.884 822.636,302.551 823.112,297.73C823.473,294.073 826.146,291.069 827.178,287.543C828.052,284.343 827.559,280.919 825.817,278.096C826.575,278.902 827.333,279.709 828.091,280.515C830.204,277.349 829.943,273.13 827.457,270.248C825.056,267.596 821.043,266.602 819.18,263.548C817.267,260.41 818.294,256.147 816.484,252.948C812.052,245.112 800.703,250.667 793.906,247.932C791.113,246.808 788.989,245.571 785.847,245.659C783.174,245.813 780.533,246.306 777.985,247.128C774.332,248.185 771.15,250.465 768.975,253.586C769.19,253.341 769.425,253.116 769.679,252.913C771.326,251.622 774.215,251.73 775.085,253.633C775.292,254.111 775.38,254.633 775.339,255.153C775.196,257.448 773.191,259.161 771.2,260.309C769.208,261.458 766.967,262.418 765.667,264.314C763.522,267.444 764.784,271.643 764.785,275.437C764.749,280.317 762.499,284.926 758.674,287.957L765.905,285.001C762.452,291.044 760.186,297.691 759.227,304.584L769.004,296.507C765.383,302.27 763.182,308.811 762.583,315.591L770.43,307.55C770.788,308.178 770.967,308.892 770.948,309.614L770.13,312.771C769.841,313.397 769.52,314.008 769.17,314.603C767.907,316.771 766.601,319.44 767.782,321.654L767.788,321.651C766.545,325.834 764.669,330.019 760.497,332.053C765.125,332.538 769.954,330.224 772.044,326.541C772.385,327.204 772.797,327.828 773.272,328.401C773.406,328.57 773.539,328.737 773.672,328.904L772.518,329.673L769.428,331.733C769.428,331.733 749.183,335.833 750.465,343.521C750.517,343.837 750.581,344.214 750.652,344.638L744.827,354.54L736.37,383.241C736.37,383.241 732.014,392.466 732.783,396.31C733.552,400.154 732.783,401.692 732.783,408.611C732.783,415.53 729.451,418.348 732.783,423.986C736.114,429.624 746.108,446.024 746.108,446.024L748.303,447.671C748.196,448.66 748.234,449.659 748.415,450.637C750.465,460.887 769.684,559.035 769.684,559.035C769.684,559.035 759.946,636.681 779.678,641.55C782.153,642.161 784.583,642.715 786.944,643.208L789.929,662.82L788.135,687.677C788.135,687.677 774.553,718.428 799.41,720.222C824.267,722.015 812.992,693.571 812.992,693.571C814.304,691.142 814.84,688.369 814.529,685.627C814.276,683.345 812.142,671.475 810.05,660.057C819.483,658.926 817.718,648.915 816.461,644.513C817.005,644.195 817.413,643.687 817.604,643.088C817.888,642.065 817.227,638.044 816.028,632.409C815.051,626.807 813.381,617.738 812.242,611.595L818.373,612.593L844.256,460.887C844.256,460.887 844.426,458.472 844.348,454.94C847.887,453.11 851.536,451.502 855.275,450.124C863.731,446.793 867.062,434.493 869.881,429.367C872.7,424.242 868.856,422.705 867.063,418.092ZM775.167,321.501C776.004,320.924 776.986,320.591 778.002,320.54C777.783,321.732 775.733,322.08 774.014,322.704C774.329,322.242 774.719,321.836 775.167,321.501ZM762.253,397.848C764.329,401.259 760.57,410.501 757.182,417.836C755.241,416.164 753.215,416.691 755.59,411.942C757.209,408.933 758.17,405.613 758.409,402.204C758.409,401.618 758.709,397.313 761.234,395.524C761.5,396.329 761.841,397.107 762.253,397.848ZM754.475,427.287C755.65,426.808 757.429,426.074 759.832,425.257C758.681,426.768 757.367,428.568 756.045,430.533C755.033,429.765 754.449,428.557 754.475,427.287ZM837.593,430.649C836.035,428.994 834.776,427.513 833.739,426.188C835.672,426.697 837.64,427.244 839.643,427.83C840.641,427.979 841.659,427.911 842.629,427.631C842.718,429.403 842.718,431.93 842.718,431.93L839.911,433.873C839.271,432.709 838.493,431.626 837.593,430.649L837.593,430.649ZM845.545,421.762C845.515,421.788 845.483,421.818 845.452,421.845C845.314,420.832 845.085,419.833 844.768,418.861C843.089,413.564 842.191,404.167 841.714,396.147L846.562,412.455C846.562,412.455 846.818,420.655 845.545,421.762Z" style="fill:rgb(208,205,225);fill-rule:nonzero;"/>
    </g>
    <g transform="matrix(1,0,0,1,-120.359,-107.022)">
        <path d="M746.003,354.406C746.003,354.406 719.712,309.219 718.891,304.29C718.069,299.36 704.924,290.323 704.924,290.323C700.433,285.831 693.064,284.41 685.309,284.484C688.229,282.068 677.802,280.444 676.99,278.821C676.169,277.178 673.704,277.178 670.418,274.713C667.132,272.248 658.929,274.302 658.928,274.302C657.694,271.707 656.836,268.95 656.379,266.114C659.88,261.973 661.798,256.72 661.791,251.298C661.791,251.239 661.787,251.181 661.787,251.122C661.996,251.447 662.205,251.775 662.414,252.112C663.953,242.893 666.67,235.23 661.492,226.821C657.823,220.862 652.074,216.467 645.362,214.489L640.43,218.435L642.348,213.833C640.735,213.587 639.103,213.493 637.473,213.551L633.036,219.256L634.872,213.747C627.092,214.714 620.061,218.896 615.498,225.271C609.85,233.415 610.228,244.734 615.783,252.941C615.802,252.884 615.816,252.827 615.835,252.77C616.332,260.563 620.767,267.589 627.589,271.391L628.984,282.554C627.728,283.719 626.117,284.43 624.409,284.572C621.945,284.572 619.48,291.144 619.48,291.144C619.48,291.144 618.083,291.849 616.577,295.177C612.699,297.818 600.869,306.111 596.479,311.907C593.883,313.185 591.094,316.027 591.546,322.364C592.368,333.867 591.546,387.269 591.546,387.269C591.546,387.269 584.152,432.456 586.617,435.742C589.082,439.028 585.795,449.709 585.795,449.709L588.26,450.257L588.26,452.995C588.26,452.995 580.847,487.361 592.368,485.858C611.264,483.394 597.297,455.46 597.297,455.46L597.297,452.265L600.584,452.995C600.584,452.995 602.227,441.493 605.513,440.672C606.656,440.386 607.998,437.315 609.262,433.433C609.999,439.489 610.443,443.136 610.443,443.136L615.583,441.994L617.015,447.244C617.368,447.442 617.738,447.609 618.119,447.744L617.015,453.817C617.015,453.817 616.194,460.389 617.015,464.497C617.43,466.569 632.68,510.851 647.697,554.241L647.414,564.73C647.414,564.73 640.019,572.946 641.663,578.697C643.306,584.448 637.555,632.099 637.555,632.099L632.625,655.925L633.866,656.307L632.727,660.481C631.746,660.977 630.874,661.662 630.161,662.497C623.588,669.892 615.372,691.253 615.372,691.253C615.372,691.253 600.584,713.435 623.588,712.614C646.592,711.792 648.235,703.576 648.235,703.576C648.235,703.576 651.522,682.215 651.522,681.394C651.522,680.572 649.878,672.127 649.878,672.127L649.24,671.423L649.686,661.174L653.986,662.497C653.986,662.497 658.094,641.136 661.38,638.672C662.529,637.81 665.585,628.215 669.074,615.89C672.64,626.158 676.093,661.662 677.214,664.885C676.817,665.427 676.467,666.003 676.169,666.605C672.476,673.692 668.36,680.551 663.845,687.145C659.33,693.738 637.555,702.755 663.845,706.863C663.845,706.863 678.634,707.684 686.028,702.755C693.422,697.825 713.14,690.431 713.14,688.788C713.14,687.145 708.21,662.99 703.281,665.619L699.979,658.025L703.281,656.746L682.481,563.383C682.973,561.393 683.334,559.373 683.563,557.336C683.563,553.033 694.201,469.258 696.908,448.01C708.823,451.385 719.712,426.705 719.712,426.705L722.413,421.843L726.285,424.24C726.285,424.24 729.571,416.024 734.501,415.203C739.43,414.381 748.468,370.838 748.468,365.086C748.392,361.394 747.553,357.758 746.003,354.406ZM707.724,418.776C706.916,417.492 705.977,416.294 704.924,415.203C707.072,409.608 708.722,403.834 709.853,397.949C711.497,388.912 707.389,359.335 707.389,359.335L707.317,357.327C711.349,362.62 716.426,369.677 716.426,371.659C716.426,373.597 717.34,375.426 718.891,376.588L713.961,393.842C713.961,393.842 710.675,402.057 709.853,406.165C709.361,408.601 709.086,411.075 709.032,413.559L710.196,414.28L707.724,418.776Z" style="fill:rgb(208,205,225);fill-rule:nonzero;"/>
    </g>
    <g transform="matrix(1,0,0,1,-120.359,-107.022)">
        <path d="M369.881,369.613L374.265,368.626L356.19,317.688L317.166,303.311C317.166,303.311 317.016,303.477 316.74,303.762C313.411,300.541 311.998,295.866 311.408,292.186C320.083,288.682 325.792,280.219 325.792,270.863C325.792,266.448 324.521,262.125 322.13,258.413C325.346,257.641 326.494,254.723 327.573,251.245C326.905,251.047 326.223,250.899 325.534,250.801C326.039,249.667 326.545,248.533 327.051,247.399C326.162,247.319 325.273,247.239 324.384,247.159C324.612,246.099 324.839,245.039 325.066,243.979C323.933,244.761 322.799,245.544 321.666,246.326C322.448,244.066 322.009,241.556 320.508,239.695C319.003,237.876 317.04,236.491 314.821,235.685C305.988,232.21 295.915,233.97 288.785,240.235L288.539,239.278C281.606,244.608 277.064,252.478 275.919,261.148C274.83,269.722 278.949,278.451 284.302,285.236C284.257,284.94 284.209,284.645 284.16,284.349C284.391,284.668 284.63,284.981 284.877,285.288L285.535,310.294L283.887,311.707C283.884,311.708 256.234,324.218 255.156,339.159L255.153,339.17C253.493,346.444 252.672,384.236 252.672,384.236L254.947,384.236L252.672,399.025L237.883,456.535C237.883,456.535 218.987,481.182 235.419,486.112C245.629,489.175 248.542,477.328 249.285,467.919C249.877,470.251 251.646,471.828 255.136,472.145C255.411,472.17 255.704,472.191 255.988,472.214C248.219,492.292 253.493,557.589 253.493,557.589C249.385,565.805 297.858,622.494 297.858,622.494L300.777,620.937L301.409,622.2C299.784,622.356 298.68,622.494 298.68,622.494L298.68,647.963C298.68,647.963 291.286,673.431 301.145,678.361C303.696,679.636 306.357,678.709 308.9,676.637C308.414,684.496 307.717,696.225 307.717,698.9C307.717,703.008 318.398,710.402 318.398,710.402C318.398,710.402 320.863,719.44 340.581,719.44C360.298,719.44 345.51,695.614 345.51,695.614L334.83,671.788C334.83,671.788 334.03,672.179 331.612,670.21L332.478,660.683L337.294,661.108L343.867,564.983C343.867,564.983 349.618,479.539 350.439,466.394C350.632,462.179 350.533,457.957 350.142,453.756L374.265,403.954L369.881,369.613ZM352.083,401.489L349.618,410.078L349.618,391.083L352.083,401.489ZM249.514,462.416C249.535,459.406 249.385,457.357 249.385,457.357L265.447,425.233L264.995,435.174C264.995,435.174 252.132,451.446 249.514,462.416ZM287.178,555.124L302.788,500.079L311.825,566.626L311.177,590.82C310.077,588.596 309.193,586.272 308.539,583.879C306.074,574.021 287.178,555.124 287.178,555.124Z" style="fill:rgb(208,205,225);fill-rule:nonzero;"/>
    </g>
    <g transform="matrix(1,0,0,1,-120.359,-107.022)">
        <path d="M509.508,685.884C501.81,682.714 486.867,675.922 485.056,672.299C483.244,668.677 474.188,640.602 474.188,640.602L471.856,640.771C471.555,628.018 470.271,578.589 468.302,572.68C468.302,572.68 477.811,494.342 458.792,463.098L455.366,449.254C456.49,443.705 456.346,430.854 455.623,428.684C454.717,425.967 466.037,417.363 462.868,411.93C459.698,406.496 451.095,387.93 451.095,387.93C451.095,387.93 452,376.157 439.774,365.29C439.774,365.29 436.201,345.063 420.101,344.761C417.925,340.963 414.878,334.923 415.775,332.234C416.735,329.355 420.404,320.379 422.477,315.354C423.578,314.857 424.635,314.268 425.638,313.595C438.443,307.858 447.469,294.067 447.469,277.956C447.469,260.71 437.129,246.114 422.879,241.22C423.404,239.835 423.674,238.366 423.674,236.885C423.674,230.181 418.157,224.665 411.453,224.665C404.769,224.665 399.261,230.15 399.233,236.835C398.6,235.333 398.273,233.719 398.273,232.089C398.273,225.39 403.785,219.879 410.483,219.879C410.488,219.879 410.494,219.879 410.499,219.879C411.293,219.88 412.084,219.958 412.863,220.112C411.224,219.332 409.431,218.928 407.617,218.928C400.916,218.928 395.401,224.442 395.401,231.143C395.401,234.756 397.005,238.19 399.776,240.509C399.916,240.956 400.083,241.395 400.275,241.823C386.866,247.233 377.301,261.369 377.301,277.956C377.301,293.342 385.533,306.614 397.427,312.775C397.363,317.78 396.122,326.218 389.22,331.36C385.654,329.731 380.706,327.943 377.531,328.754C375.889,327.474 373.412,327.052 370.04,330.423C363.248,337.215 357.362,354.875 357.362,365.743C357.362,376.61 358.72,439.552 358.72,439.552C358.72,439.552 351.475,442.268 356.456,446.344C357.484,447.201 358.776,447.68 360.114,447.703L365.059,484.38C365.059,484.38 361.89,519.7 374.116,520.153C375.074,520.205 376.027,519.972 376.852,519.481L367.776,560.453C367.776,560.453 346.947,574.038 330.645,600.754C322.249,614.515 318.063,622.98 315.972,627.964L312.986,626.112L302.571,646.036C302.571,646.036 279.477,660.073 284.458,670.488C289.439,680.903 293.967,683.62 293.967,683.62L297.137,682.261L303.024,693.129C303.024,693.129 318.419,715.317 343.324,703.996C345.717,700.78 345.717,696.345 343.324,693.129C339.249,687.242 328.834,674.563 328.834,674.563L335.626,640.149L334.221,639.278L377.286,587.17C377.286,587.17 389.964,579.472 394.493,572.68C399.021,565.887 427.095,495.701 427.095,495.701L442.944,569.057C442.944,569.057 442.038,595.773 446.113,612.98C448.335,622.632 449.783,632.446 450.446,642.329L449.283,642.413L452,662.79C452,662.79 440.227,691.77 448.378,694.034C454.176,695.532 460.08,696.592 466.037,697.204L466.943,694.034C466.943,694.034 501.81,713.053 514.489,699.015C514.489,699.015 517.206,689.053 509.508,685.884ZM385.436,463.551C386.795,464.909 386.342,471.249 386.342,471.249L383.625,488.908L380.911,501.158C380.536,495.37 379.779,489.615 378.644,483.928L377.39,450.085C377.637,450.24 377.907,450.353 378.191,450.419C379.097,450.419 378.644,442.721 378.644,442.721C378.644,442.721 379.172,441.346 379.832,439.177C381.592,444.447 383.741,447.885 386.342,448.608L386.794,454.494C386.794,454.494 380.908,457.211 386.342,457.211C386.657,457.2 386.97,457.153 387.275,457.073L386.794,459.475C386.794,459.475 384.078,462.192 385.436,463.551Z" style="fill:rgb(208,205,225);fill-rule:nonzero;"/>
    </g>
    <ellipse cx="381.409" cy="593.955" rx="364" ry="6" style="fill:rgb(63,61,86);"/>
    <ellipse cx="508.807" cy="609.455" rx="400.398" ry="15.5" style="fill:rgb(63,61,86);"/>
    <ellipse cx="434.909" cy="632.455" rx="196.5" ry="15.5" style="fill:rgb(63,61,86);"/>
    <ellipse cx="718.909" cy="650.955" rx="87.5" ry="8" style="fill:rgb(63,61,86);"/>
    <ellipse cx="598.909" cy="677.955" rx="41.5" ry="8" style="fill:rgb(63,61,86);"/>
    <ellipse cx="260.909" cy="643.955" rx="41.5" ry="8" style="fill:rgb(63,61,86);"/>
    <path d="M465.909,553.455L469.909,581.455L489.909,579.455L487.909,550.455L465.909,553.455Z" style="fill:rgb(255,184,184);fill-rule:nonzero;"/>
    <path d="M370.909,553.455L366.909,581.455L346.909,579.455L348.909,550.455L370.909,553.455Z" style="fill:rgb(255,184,184);fill-rule:nonzero;"/>
    <g transform="matrix(1,0,0,1,-120.359,-107.022)">
        <path d="M462.268,370.478C462.268,370.478 444.268,391.478 448.268,424.478C452.268,457.478 459.268,532.478 459.268,532.478L464.268,665.478L496.268,663.478L501.268,550.478L517.268,459.478L560.268,565.478C560.268,565.478 581.268,664.478 582.268,664.478C583.268,664.478 612.268,661.478 612.268,661.478L598.268,544.478C598.268,544.478 576.268,374.478 563.268,371.478C550.268,368.478 462.268,370.478 462.268,370.478Z" style="fill:rgb(47,46,65);fill-rule:nonzero;"/>
    </g>
    <g transform="matrix(1,0,0,1,-120.359,-107.022)">
        <path d="M612.268,682.478C612.268,682.478 594.268,670.478 587.268,684.478C580.268,698.478 586.268,708.478 586.268,708.478C586.268,708.478 592.268,712.478 589.268,716.478C586.268,720.478 585.268,746.478 611.268,742.478C637.268,738.478 624.268,711.478 624.268,711.478L612.268,682.478Z" style="fill:rgb(47,46,65);fill-rule:nonzero;"/>
    </g>
    <g transform="matrix(1,0,0,1,-120.359,-107.022)">
        <path d="M465.268,682.478C465.268,682.478 483.268,670.478 490.268,684.478C497.268,698.478 491.268,708.478 491.268,708.478C491.268,708.478 485.268,712.478 488.268,716.478C491.268,720.478 492.268,746.478 466.268,742.478C440.268,738.478 453.268,711.478 453.268,711.478L465.268,682.478Z" style="fill:rgb(47,46,65);fill-rule:nonzero;"/>
    </g>
    <g transform="matrix(1,0,0,1,-120.359,-107.022)">
        <path d="M486.768,175.978C486.768,175.978 495.768,200.978 488.768,214.978C481.768,228.978 499.768,244.978 499.768,244.978C499.768,244.978 546.768,220.978 540.768,208.978C534.768,196.978 524.768,180.978 526.768,170.978L486.768,175.978Z" style="fill:rgb(255,184,184);fill-rule:nonzero;"/>
    </g>
    <circle cx="383.909" cy="46.455" r="32" style="fill:rgb(255,184,184);"/>
    <g transform="matrix(1,0,0,1,-120.359,-107.022)">
        <path d="M481.268,213.478C481.268,213.478 513.376,240.196 537.322,202.337L562.268,216.478L575.268,368.478C575.268,368.478 502.268,410.478 467.268,374.478L472.268,233.478L481.268,213.478Z" style="fill:rgb(208,205,225);fill-rule:nonzero;"/>
    </g>
    <path d="M370.992,91.488L325.909,121.455L341.909,195.455L320.909,310.455L354.909,259.455L370.992,91.488Z" style="fill:rgb(87,90,137);fill-rule:nonzero;"/>
    <g transform="matrix(1,0,0,1,-120.359,-107.022)">
        <path d="M531.195,190.169L542.268,197.478L587.268,213.478L580.268,337.478L599.268,417.478L572.268,431.478C572.268,431.478 567.268,393.478 536.268,374.478C505.268,355.478 524.122,195.861 531.195,190.169Z" style="fill:rgb(87,90,137);fill-rule:nonzero;"/>
    </g>
    <g transform="matrix(1,0,0,1,-120.359,-107.022)">
        <path d="M456.268,384.478L469.268,393.478C469.268,393.478 452.768,410.978 449.768,407.978C448.011,406.291 447.094,403.907 447.268,401.478L444.268,394.478L456.268,384.478Z" style="fill:rgb(255,184,184);fill-rule:nonzero;"/>
    </g>
    <g transform="matrix(1,0,0,1,-120.359,-107.022)">
        <path d="M542.688,382.532L538.268,389.478C538.268,389.478 525.268,395.478 528.268,399.478C531.268,403.478 556.268,412.478 561.268,403.478L566.268,394.478L542.688,382.532Z" style="fill:rgb(255,184,184);fill-rule:nonzero;"/>
    </g>
    <g transform="matrix(1,0,0,1,-120.359,-107.022)">
        <path d="M452.268,227.478L445.268,228.478L433.768,302.978C433.768,302.978 429.268,316.478 434.268,348.478C439.268,380.478 444.219,401.315 444.219,401.315L466.268,385.478L456.268,359.478L469.268,264.478L452.268,227.478Z" style="fill:rgb(87,90,137);fill-rule:nonzero;"/>
    </g>
    <g transform="matrix(1,0,0,1,-120.359,-107.022)">
        <path d="M571.268,211.478L587.268,213.478C587.268,213.478 605.268,232.478 608.268,252.478C611.268,272.478 610.268,329.478 610.268,329.478L564.268,402.478L539.268,384.478L574.268,322.478L557.268,248.478L571.268,211.478Z" style="fill:rgb(87,90,137);fill-rule:nonzero;"/>
    </g>
    <g transform="matrix(1,0,0,1,-120.359,-107.022)">
        <path d="M534.783,124.535C529.946,116.68 522.367,110.886 513.518,108.279L507.016,113.48L509.544,107.413C507.418,107.089 505.267,106.965 503.118,107.042L497.268,114.563L499.689,107.299C489.432,108.574 480.163,114.088 474.147,122.493C466.701,133.228 465.445,148.158 472.768,158.978C474.778,152.8 477.218,147.003 479.228,140.826C480.808,141.041 482.409,141.049 483.991,140.849L486.437,135.142L487.12,140.608C494.7,139.947 505.944,138.497 513.131,137.169L512.432,132.976L516.613,136.46C518.815,135.953 520.122,135.494 520.014,135.142C525.358,143.759 530.654,149.262 535.999,157.879C538.028,145.725 541.609,135.622 534.783,124.535Z" style="fill:rgb(47,46,65);fill-rule:nonzero;"/>
    </g>
    <ellipse cx="412.652" cy="45.45" rx="2.166" ry="4.332" style="fill:rgb(255,184,184);"/>
    <g transform="matrix(1,0,0,1,-120.359,-107.022)">
        <path d="M300.811,710.075L315.511,688.215L300.841,712.426L300.872,714.886C299.799,714.894 298.736,714.877 297.684,714.833L298.413,683.213L298.393,682.969L298.42,682.922L298.49,679.934L282.392,656.562L298.471,677.698L298.528,678.33L299.078,654.44L285.174,630.208L299.118,650.243L298.972,600.75L298.973,600.585L298.977,600.747L299.9,639.755L312.573,623.91L299.942,643.115L300.218,664.484L311.879,643.629L300.261,667.625L300.415,679.508L317.374,650.457L300.467,683.653L300.811,710.075Z" style="fill:rgb(63,61,86);fill-rule:nonzero;"/>
    </g>
    <g transform="matrix(1,0,0,1,-120.359,-107.022)">
        <path d="M1079.55,158.209C1079.58,158.118 1079.61,158.026 1079.64,157.934C1079.63,157.974 1079.61,158.013 1079.6,158.053L1079.55,158.209Z" style="fill:rgb(47,46,65);fill-rule:nonzero;"/>
    </g>
    <g transform="matrix(1,0,0,1,-120.359,-107.022)">
        <path d="M939.811,688.831L1013.88,578.684L939.962,700.68L940.117,713.074C934.709,713.116 929.355,713.026 924.053,712.804L927.726,553.485L927.626,552.255L927.761,552.018L928.113,536.963L847,419.196L928.017,525.696L928.305,528.878L931.079,408.505L861.019,286.408L931.279,387.359L930.545,137.979L930.547,137.149L930.571,137.965L935.222,334.511L999.073,254.674L935.431,351.443L936.824,459.113L995.58,354.031L937.04,474.942L937.816,534.812L1023.26,388.434L938.076,555.698L939.811,688.831Z" style="fill:rgb(63,61,86);fill-rule:nonzero;"/>
    </g>
    <g transform="matrix(1,0,0,1,-120.359,-107.022)">
        <path d="M183.514,684.561L233.915,609.609L183.617,692.624L183.722,701.058C180.043,701.086 176.399,701.025 172.791,700.874L175.291,592.462L175.223,591.625L175.315,591.464L175.554,581.22L120.359,501.083L175.489,573.552L175.685,575.718L177.573,493.808L129.899,410.724L177.708,479.419L177.209,309.722L177.211,309.158L177.227,309.713L180.391,443.456L223.84,389.13L180.534,454.978L181.482,528.245L221.464,456.739L181.629,539.016L182.157,579.756L240.301,480.15L182.333,593.968L183.514,684.561Z" style="fill:rgb(63,61,86);fill-rule:nonzero;"/>
    </g>
</svg>
